<svg width="31" height="28" viewBox="0 0 31 28" fill="none" xmlns="http://www.w3.org/2000/svg">
<path d="M29.6387 1.67315C28.8799 1.00163 27.9706 0.666016 26.9112 0.666016H4.50127C3.44156 0.666016 2.53252 1.00175 1.77351 1.67315C1.01465 2.34438 0.635315 3.14878 0.635315 4.08617V23.9132C0.635315 24.8504 1.01458 25.655 1.77351 26.3263C2.53252 26.9976 3.44177 27.3335 4.50127 27.3335H26.911C27.9701 27.3335 28.8797 26.9976 29.6385 26.3263C30.3975 25.655 30.7765 24.8504 30.7765 23.9132V4.08617C30.7764 3.14859 30.3975 2.34462 29.6387 1.67315ZM11.4579 10.2756C12.6417 9.26294 14.0645 8.75639 15.7259 8.75639C17.4002 8.75639 18.8293 9.26294 20.0135 10.2756C21.1976 11.2883 21.7893 12.5125 21.7893 13.9476C21.7893 15.3826 21.1976 16.6068 20.0135 17.6193C18.8293 18.6323 17.4007 19.1388 15.7259 19.1388C14.0645 19.1388 12.6419 18.6319 11.4579 17.6193C10.2738 16.6067 9.68178 15.3826 9.68178 13.9476C9.68178 12.5125 10.2738 11.2884 11.4579 10.2756ZM27.3626 23.2016C27.3626 23.5023 27.2445 23.754 27.0092 23.9566C26.7733 24.1591 26.4924 24.2605 26.1651 24.2605H5.18817C4.84809 24.2605 4.56333 24.1591 4.33459 23.9566C4.10551 23.7544 3.99107 23.5023 3.99107 23.2016V11.9509H6.75786C6.49634 12.6802 6.36554 13.4384 6.36554 14.2253C6.36554 16.4481 7.28119 18.3431 9.11268 19.9117C10.9444 21.4798 13.1487 22.2642 15.7258 22.2642C17.4265 22.2642 18.9963 21.9052 20.4358 21.1876C21.8748 20.4697 23.0123 19.4948 23.8501 18.2619C24.6875 17.0292 25.1061 15.6836 25.1061 14.2254C25.1061 13.4385 24.9748 12.6804 24.7133 11.9509H27.3627V23.2017H27.3626V23.2016ZM27.3626 7.69726C27.3626 8.03293 27.2318 8.31655 26.9697 8.548C26.7082 8.77962 26.3878 8.89528 26.0082 8.89528H22.5939C22.2147 8.89528 21.8939 8.77956 21.6324 8.548C21.3708 8.31655 21.24 8.03293 21.24 7.69726V4.83286C21.24 4.50874 21.3708 4.2281 21.6324 3.99075C21.894 3.75353 22.2148 3.63477 22.5939 3.63477H26.0082C26.3878 3.63477 26.7083 3.75347 26.9697 3.99075C27.2317 4.2281 27.3626 4.50874 27.3626 4.83286V7.69726Z" fill="black"/>
</svg>
