<svg width="28" height="21" viewBox="0 0 28 21" fill="none" xmlns="http://www.w3.org/2000/svg">
<path d="M27.3529 3.04162C26.2801 3.45832 25.2069 3.71856 24.1346 3.82309C25.3458 3.16684 26.1651 2.23974 26.5919 1.04183C25.484 1.63548 24.3018 2.04162 23.0445 2.26048C21.937 1.19797 20.576 0.666504 18.9606 0.666504C17.415 0.666504 16.0972 1.15862 15.0066 2.14308C13.9166 3.12749 13.3716 4.31751 13.3716 5.71331C13.3716 6.08826 13.4177 6.47382 13.51 6.86962C11.2259 6.76547 9.08316 6.24724 7.08155 5.31494C5.08006 4.38253 3.38142 3.1403 1.98564 1.58824C1.47806 2.36933 1.22417 3.21845 1.22417 4.1351C1.22417 4.9997 1.44909 5.80192 1.89922 6.54152C2.34904 7.28101 2.95481 7.87991 3.71622 8.33832C2.81626 8.30701 1.97419 8.09341 1.18987 7.69755V7.76005C1.18987 8.97892 1.61382 10.049 2.46159 10.9712C3.30948 11.8933 4.3795 12.4737 5.6714 12.7134C5.18685 12.8278 4.69648 12.8851 4.20053 12.8851C3.87749 12.8851 3.52561 12.8591 3.14499 12.8074C3.50258 13.8176 4.16016 14.6481 5.11751 15.2995C6.07504 15.9505 7.15943 16.2861 8.37072 16.3075C6.3405 17.7448 4.02762 18.4634 1.43206 18.4634C0.935927 18.4634 0.486161 18.443 0.0823364 18.4011C2.67796 19.9114 5.53879 20.6665 8.66503 20.6665C10.6492 20.6665 12.5122 20.383 14.2536 19.8151C15.9958 19.2476 17.4838 18.487 18.7182 17.5337C19.9523 16.5806 21.0168 15.4842 21.9106 14.2446C22.8046 13.005 23.4706 11.7108 23.9093 10.3619C24.3475 9.01263 24.5668 7.66132 24.5668 6.3069C24.5668 6.01519 24.5609 5.79655 24.5494 5.65065C25.6456 4.93222 26.5799 4.06226 27.3529 3.04162Z" fill="black"/>
</svg>
