<svg width="33" height="22" viewBox="0 0 33 22" fill="none" xmlns="http://www.w3.org/2000/svg">
<path d="M32.347 8.50005C32.3355 7.90013 32.2852 7.14161 32.1974 6.22519C32.1091 5.30824 31.9828 4.48878 31.8185 3.76674C31.6305 2.95574 31.2222 2.27235 30.5939 1.7168C29.9655 1.16113 29.2342 0.83902 28.3999 0.749999C25.7918 0.472428 21.8507 0.333496 16.5764 0.333496C11.302 0.333496 7.36085 0.472428 4.75296 0.749999C3.91878 0.838962 3.19033 1.16113 2.5679 1.7168C1.94523 2.27218 1.53993 2.95557 1.35194 3.76674C1.17592 4.48901 1.0436 5.30841 0.955525 6.22519C0.867577 7.14161 0.817586 7.89984 0.805921 8.50005C0.794009 9.10002 0.788208 9.93326 0.788208 11C0.788208 12.0666 0.794009 12.9001 0.805983 13.5C0.817647 14.1003 0.867639 14.8584 0.955587 15.7748C1.04366 16.6916 1.16999 17.5111 1.33447 18.2333C1.52247 19.0445 1.93061 19.7278 2.55908 20.2831C3.18767 20.8386 3.91909 21.1608 4.75302 21.2498C7.36091 21.5276 11.3018 21.6665 16.5764 21.6665C21.8512 21.6665 25.7918 21.5276 28.3999 21.2498C29.2342 21.1609 29.9624 20.8386 30.585 20.2831C31.2077 19.7277 31.6128 19.0441 31.8008 18.2333C31.9769 17.5111 32.1091 16.6916 32.1974 15.7748C32.2852 14.8584 32.3351 14.0999 32.347 13.5C32.3587 12.9001 32.3647 12.0666 32.3647 11C32.3647 9.93326 32.3588 9.10002 32.347 8.50005ZM22.8143 11.9L13.7925 17.2331C13.628 17.3442 13.4281 17.3997 13.1933 17.3997C13.0172 17.3997 12.8351 17.3551 12.6472 17.2662C12.2596 17.0665 12.0659 16.7552 12.0659 16.3331V5.66695C12.0659 5.24496 12.2596 4.93371 12.6472 4.73378C13.0467 4.53349 13.4283 4.5447 13.7925 4.76711L22.8143 10.1002C23.1666 10.2888 23.3428 10.5889 23.3428 11.0001C23.3428 11.411 23.1665 11.7113 22.8143 11.9Z" fill="black"/>
</svg>
